PathFileType	4	(X/Y/Z)	C:\Git\research_data\torsion_deformities_healthy_kinematics\simulations\P03\pre\Static01\marker_experimental_HJC.trc
DataRate	CameraRate	NumFrames	NumMarkers	Units	OrigDataRate	OrigDataStartFrame	OrigNumFrames
150	150	4	38	mm	150	1	150
Frame#	Time	C7			T10			CLAV			STRN			RBAK			SACR			LASI			RASI			LT1			LT2			LT3			LS1			LS2			LS3			LHEE			LTOE			RT1			RT2			RT3			RS1			RS2			RS3			RHEE			RTOE			LKNE			LKNM			LANK			LANM			RKNM			RKNE			RANM			RANK			LKJC			RKJC			LAJC			RAJC			LHJC			RHJC		
		X1	Y1	Z1	X2	Y2	Z2	X3	Y3	Z3	X4	Y4	Z4	X5	Y5	Z5	X6	Y6	Z6	X7	Y7	Z7	X8	Y8	Z8	X9	Y9	Z9	X10	Y10	Z10	X11	Y11	Z11	X12	Y12	Z12	X13	Y13	Z13	X14	Y14	Z14	X15	Y15	Z15	X16	Y16	Z16	X17	Y17	Z17	X18	Y18	Z18	X19	Y19	Z19	X20	Y20	Z20	X21	Y21	Z21	X22	Y22	Z22	X23	Y23	Z23	X24	Y24	Z24	X25	Y25	Z25	X26	Y26	Z26	X27	Y27	Z27	X28	Y28	Z28	X29	Y29	Z29	X30	Y30	Z30	X31	Y31	Z31	X32	Y32	Z32	X33	Y33	Z33	X34	Y34	Z34	X35	Y35	Z35	X36	Y36	Z36	X37	Y37	Z37	X38	Y38	Z38	

1	0.000000	-964.104004	1273.889648	-441.158905	-915.230713	1094.520142	-443.063263	-1095.646240	1212.959961	-425.060181	-1128.394165	1160.167480	-420.282013	-934.113586	1176.933594	-540.288147	-918.474792	874.542664	-428.316589	-1073.995728	870.943115	-276.016205	-1127.219849	879.007263	-518.584351	-1129.932251	585.767578	-242.284973	-1080.853027	474.094452	-230.449051	-1204.695557	531.286133	-275.828705	-1034.055664	216.883179	-282.390076	-951.073181	148.558167	-341.971802	-1063.027222	131.284271	-254.402756	-973.886963	41.867340	-367.927948	-1083.526245	41.469032	-262.561523	-1135.057861	608.278809	-590.239014	-1057.717285	510.678894	-584.497803	-1199.778320	534.757507	-580.648804	-1089.997314	267.084259	-586.102905	-981.988892	217.631622	-561.341919	-1117.220825	176.834427	-581.757690	-982.019958	45.054333	-500.066895	-1123.464233	41.881138	-570.502258	-1149.450928	432.381866	-267.456512	-1165.127197	421.463654	-367.142395	-994.478271	49.727455	-304.893066	-1045.193115	46.968243	-357.081421	-1165.928833	424.132324	-464.455200	-1166.016724	440.123383	-566.865662	-1063.049561	52.792347	-490.658691	-1019.232483	47.718151	-552.185608	-1157.289062	426.922760	-317.299469	-1165.972778	432.127869	-515.660400	-1019.835693	48.347851	-330.987244	-1041.140991	50.255249	-521.422119	-1029.161019	786.637584	-324.446416	-1067.416372	792.433769	-498.794624	
2	0.006667	-963.976257	1273.898682	-441.193054	-915.183899	1094.505371	-443.130188	-1095.560791	1212.940796	-425.113831	-1128.302490	1160.157715	-420.354065	-934.077942	1176.922607	-540.386536	-918.425293	874.504639	-428.391022	-1073.977661	870.984863	-276.094543	-1127.145752	879.039368	-518.691223	-1129.878296	585.810913	-242.308273	-1080.741333	474.114594	-230.478806	-1204.653442	531.317200	-275.815552	-1033.987793	216.899094	-282.399109	-951.020996	148.550735	-341.990967	-1062.958496	131.320709	-254.385651	-973.885498	41.848118	-367.921326	-1083.501953	41.460537	-262.515259	-1134.980957	608.280273	-590.319946	-1057.623657	510.682129	-584.521057	-1199.702881	534.770996	-580.740784	-1089.963867	267.088531	-586.140930	-981.955444	217.610260	-561.330872	-1117.189697	176.832748	-581.797485	-982.029236	45.045765	-500.073212	-1123.460327	41.886032	-570.499390	-1149.400024	432.431427	-267.399689	-1165.073975	421.481201	-367.121490	-994.443726	49.696297	-304.876648	-1045.181519	46.987598	-357.045898	-1165.900513	424.147522	-464.522217	-1165.960815	440.135803	-566.928955	-1063.059326	52.794697	-490.660461	-1019.249817	47.712532	-552.199829	-1157.237061	426.956329	-317.260590	-1165.930664	432.141663	-515.725586	-1019.812561	48.341949	-330.961273	-1041.154663	50.253616	-521.430115	-1029.165443	786.650886	-324.506314	-1067.380329	792.440110	-498.874139	
3	0.013333	-963.859192	1273.914307	-441.231750	-915.133118	1094.497681	-443.196564	-1095.478149	1212.928223	-425.170776	-1128.212646	1160.149414	-420.429291	-934.022888	1176.929443	-540.468872	-918.385681	874.479980	-428.460327	-1073.955688	871.026428	-276.173218	-1127.075439	879.072205	-518.793091	-1129.818237	585.852478	-242.321411	-1080.630859	474.140991	-230.493423	-1204.602539	531.344849	-275.790802	-1033.920166	216.917542	-282.397064	-950.971985	148.547455	-342.005188	-1062.891235	131.353226	-254.364212	-973.882935	41.834507	-367.913574	-1083.478394	41.451691	-262.471619	-1134.893555	608.285156	-590.401184	-1057.529175	510.685364	-584.543396	-1199.619019	534.783020	-580.843567	-1089.927490	267.091919	-586.183167	-981.926270	217.591278	-561.332214	-1117.155762	176.832367	-581.836731	-982.036194	45.038567	-500.078064	-1123.456909	41.889240	-570.499695	-1149.304443	432.463348	-267.368805	-1165.022705	421.495331	-367.095337	-994.415588	49.675083	-304.856567	-1045.169312	47.007839	-357.011658	-1165.872192	424.166779	-464.597961	-1165.899780	440.149597	-567.004272	-1063.064575	52.798313	-490.664368	-1019.260620	47.706829	-552.210876	-1157.163574	426.979340	-317.232086	-1165.885986	432.158203	-515.801147	-1019.792419	48.341461	-330.934113	-1041.162598	50.252571	-521.437622	-1029.163951	786.669125	-324.568512	-1067.343941	792.452052	-498.952319	
4	0.020000	-963.753601	1273.935181	-441.274994	-915.078613	1094.496582	-443.262482	-1095.396973	1212.923584	-425.230072	-1128.126221	1160.145142	-420.507507	-933.949768	1176.950684	-540.536804	-918.354492	874.469360	-428.524658	-1073.929932	871.067261	-276.251801	-1127.008667	879.105408	-518.889954	-1129.751587	585.891724	-242.323975	-1080.521118	474.171051	-230.495377	-1204.543579	531.369507	-275.753662	-1033.853271	216.938141	-282.385162	-950.926392	148.548080	-342.014709	-1062.825562	131.382797	-254.338242	-973.878784	41.826065	-367.904663	-1083.455078	41.442688	-262.430084	-1134.796143	608.292847	-590.483459	-1057.433838	510.689423	-584.564636	-1199.527100	534.794373	-580.955322	-1089.887939	267.094238	-586.229858	-981.900513	217.574539	-561.344849	-1117.119019	176.832825	-581.875732	-982.040955	45.032715	-500.081451	-1123.453857	41.890793	-570.503113	-1149.155396	432.476624	-267.373901	-1164.975342	421.506134	-367.061157	-994.393311	49.662979	-304.833466	-1045.156372	47.028759	-356.978790	-1165.846558	424.188995	-464.682159	-1165.834473	440.164429	-567.091980	-1063.065430	52.803024	-490.670288	-1019.265015	47.701027	-552.218567	-1157.065430	426.991364	-317.217529	-1165.840454	432.176697	-515.887085	-1019.774780	48.345867	-330.906128	-1041.165283	50.252026	-521.444458	-1029.155754	786.691999	-324.632790	-1067.306153	792.469426	-499.029228	
